custom-analysis
version=1
nRows=4
nColumns=98
inDegrees=no

This file contains tibia displacement and acting force.

Units are S.I. units (seconds, meters, Newtons, ...)
Angles are in degrees.

endheader
time	APT	SIT	knee_angle	aACL_R_force	pACL_R_force	aPCL_R_force	pPCL_R_force	aMCL_R_force	mMCL_R_force	pMCL_R_force	aLCL_R_force	mLCL_R_force	pLCL_R_force	aPCL_L_force	pPCL_L_force	aMCL_L_force	aLCL_L_force	aACL_R_length	pACL_R_length	aPCL_R_length	pPCL_R_length	aMCL_R_length	mMCL_R_length	pMCL_R_length	aLCL_R_length	mLCL_R_length	pLCL_R_length	aPCL_L_length	pPCL_L_length	aMCL_L_length	aLCL_L_length	aACL_R_strain	pACL_R_strain	aPCL_R_strain	pPCL_R_strain	aMCL_R_strain	mMCL_R_strain	pMCL_R_strain	aLCL_R_strain	mLCL_R_strain	pLCL_R_strain	aPCL_L_strain	pPCL_L_strain	aMCL_L_strain	aLCL_L_strain	femur_lat_meniscii_r.femur_lat_r.force.X	femur_lat_meniscii_r.femur_lat_r.force.Y	femur_lat_meniscii_r.femur_lat_r.force.Z	femur_lat_meniscii_r.femur_lat_r.torque.X	femur_lat_meniscii_r.femur_lat_r.torque.Y	femur_lat_meniscii_r.femur_lat_r.torque.Z	femur_lat_meniscii_r.meniscus_lat_r.force.X	femur_lat_meniscii_r.meniscus_lat_r.force.Y	femur_lat_meniscii_r.meniscus_lat_r.force.Z	femur_lat_meniscii_r.meniscus_lat_r.torque.X	femur_lat_meniscii_r.meniscus_lat_r.torque.Y	femur_lat_meniscii_r.meniscus_lat_r.torque.Z	femur_med_meniscii_r.femur_med_r.force.X	femur_med_meniscii_r.femur_med_r.force.Y	femur_med_meniscii_r.femur_med_r.force.Z	femur_med_meniscii_r.femur_med_r.torque.X	femur_med_meniscii_r.femur_med_r.torque.Y	femur_med_meniscii_r.femur_med_r.torque.Z	femur_med_meniscii_r.meniscus_med_r.force.X	femur_med_meniscii_r.meniscus_med_r.force.Y	femur_med_meniscii_r.meniscus_med_r.force.Z	femur_med_meniscii_r.meniscus_med_r.torque.X	femur_med_meniscii_r.meniscus_med_r.torque.Y	femur_med_meniscii_r.meniscus_med_r.torque.Z	femur_med_tibia_r.tibia_upper_r.force.X	femur_med_tibia_r.tibia_upper_r.force.Y	femur_med_tibia_r.tibia_upper_r.force.Z	femur_med_tibia_r.tibia_upper_r.torque.X	femur_med_tibia_r.tibia_upper_r.torque.Y	femur_med_tibia_r.tibia_upper_r.torque.Z	femur_med_tibia_r.femur_med_r.force.X	femur_med_tibia_r.femur_med_r.force.Y	femur_med_tibia_r.femur_med_r.force.Z	femur_med_tibia_r.femur_med_r.torque.X	femur_med_tibia_r.femur_med_r.torque.Y	femur_med_tibia_r.femur_med_r.torque.Z	femur_lat_tibia_r.tibia_upper_r.force.X	femur_lat_tibia_r.tibia_upper_r.force.Y	femur_lat_tibia_r.tibia_upper_r.force.Z	femur_lat_tibia_r.tibia_upper_r.torque.X	femur_lat_tibia_r.tibia_upper_r.torque.Y	femur_lat_tibia_r.tibia_upper_r.torque.Z	femur_lat_tibia_r.femur_lat_r.force.X	femur_lat_tibia_r.femur_lat_r.force.Y	femur_lat_tibia_r.femur_lat_r.force.Z	femur_lat_tibia_r.femur_lat_r.torque.X	femur_lat_tibia_r.femur_lat_r.torque.Y	femur_lat_tibia_r.femur_lat_r.torque.Z	femur_lat_meniscii_force_r	femur_med_meniscii_force_r	femur_lat_tibia_force_r	femur_med_tibia_force_r
      0.19404697	      0.00514475	     -0.00023754	     60.00037120	     49.43400695	      8.21836573	    322.79085346	     86.90661734	      6.97372315	      3.66497050	      0.00000000	      0.00000000	      0.00000000	      0.00000000	      0.00000000	      0.00000000	      0.00000001	      0.00000000	      0.03344130	      0.02573566	      0.03363656	      0.03079524	      0.06142716	      0.06043399	      0.05708924	      0.05089462	      0.04598618	      0.04094877	      0.01525851	      0.01651186	      0.06550154	      0.04489616	      0.07856029	      0.02701496	      0.08172476	      0.03036147	      0.02332546	      0.01071170	     -0.02790417	     -0.09079727	     -0.18346378	     -0.21767941	      0.00000079	     -0.32847694	      0.00000060	     -0.00000086	    220.75119488	    100.44199233	     24.43475756	    -12.36921569	      5.45111133	     90.25984263	   -220.75119488	   -100.44199233	    -24.43475756	      3.37864960	     -7.25224577	     -1.63249550	    117.80290198	      3.87314641	    -14.27308442	      5.89281002	     -2.43333983	     47.88323376	   -117.80290198	     -3.87314641	     14.27308442	     -0.29299163	      2.11189208	     -1.75236093	   -114.58028711	    -49.50604125	     11.86231213	     -0.81199625	      1.67703551	     -0.82471451	    114.58028711	     49.50604125	    -11.86231213	      5.72364510	     -2.03700994	     46.76493428	    -19.47820026	    -13.76094544	     -6.03277692	      0.52488418	     -0.72456636	     -0.04178877	     19.47820026	     13.76094544	      6.03277692	     -2.80603502	      0.47483958	      7.97664036	    243.75549480	    118.72761227	     24.59996549	    125.38024073
      0.19711471	      0.00517436	     -0.00023935	     60.00037120	     50.42487391	      8.65116139	    320.54245362	     85.14377529	      6.64931999	      3.28940432	      0.00000000	      0.00000000	      0.00000000	      0.00000000	      0.00000000	      0.00000000	      0.00000001	      0.00000000	      0.03346601	      0.02575667	      0.03362317	      0.03078244	      0.06144037	      0.06044530	      0.05709912	      0.05088072	      0.04597197	      0.04093270	      0.01525851	      0.01651186	      0.06550154	      0.04489616	      0.07935736	      0.02785329	      0.08129429	      0.02993337	      0.02354563	      0.01090093	     -0.02773608	     -0.09104565	     -0.18371604	     -0.21798644	      0.00000079	     -0.32847694	      0.00000060	     -0.00000086	    221.29323470	    101.14582862	     24.08789896	    -12.23918003	      5.46094881	     90.48675935	   -221.29323470	   -101.14582862	    -24.08789896	      3.39028485	     -7.26378658	     -1.62263047	    117.95622120	      3.66688113	    -14.49545287	      5.98109611	     -2.43753684	     47.95098420	   -117.95622120	     -3.66688113	     14.49545287	     -0.29495508	      2.11721338	     -1.76124957	   -110.30615538	    -47.74163223	     11.47786625	     -0.78248806	      1.61443737	     -0.78675185	    110.30615538	     47.74163223	    -11.47786625	      5.53581987	     -1.96267569	     45.01938886	    -19.72271004	    -13.97489407	     -6.11867716	      0.53313361	     -0.73463585	     -0.04058183	     19.72271004	     13.97489407	      6.11867716	     -2.84645039	      0.48087103	      8.07683074	    244.50235428	    118.90010215	     24.93433708	    120.74126377
      0.20121487	      0.00521258	     -0.00024273	     60.00037120	     51.36304241	      8.80959358	    317.67164654	     82.49217016	      5.69059550	      2.28420909	      0.00000000	      0.00000000	      0.00000000	      0.00000000	      0.00000000	      0.00000000	      0.00000001	      0.00000000	      0.03349911	      0.02578528	      0.03360724	      0.03076681	      0.06145566	      0.06045803	      0.05710995	      0.05086803	      0.04595893	      0.04091720	      0.01525851	      0.01651186	      0.06550154	      0.04489616	      0.08042469	      0.02899501	      0.08078197	      0.02941022	      0.02380021	      0.01111372	     -0.02755159	     -0.09127234	     -0.18394760	     -0.21828263	      0.00000079	     -0.32847694	      0.00000060	     -0.00000086	    218.25982818	    101.04276034	     26.78460349	    -13.35032525	      5.38591150	     89.22346500	   -218.25982818	   -101.04276034	    -26.78460349	      3.44912683	     -7.24275358	     -1.53673416	    118.70251522	      3.66204870	    -14.27306241	      5.89307371	     -2.44755062	     48.25843761	   -118.70251522	     -3.66204870	     14.27306241	     -0.29318189	      2.11412468	     -1.77225249	   -105.74426839	    -45.79349112	     10.79711868	     -0.74447450	      1.53878129	     -0.74812782	    105.74426839	     45.79349112	    -10.79711868	      5.22279971	     -1.88079017	     43.15716830	    -17.99080996	    -12.79869051	     -5.60572364	      0.48857617	     -0.67144620	     -0.03494010	     17.99080996	     12.79869051	      5.60572364	     -2.60778312	      0.43869292	      7.36765740	    242.00084090	    119.61361975	     22.77937354	    115.73880896
      0.20428198	      0.00524039	     -0.00024299	     60.00037120	     52.59987614	      9.57755973	    315.51084804	     80.83414574	      5.72806915	      2.27703926	      0.00000000	      0.00000000	      0.00000000	      0.00000000	      0.00000000	      0.00000000	      0.00000001	      0.00000000	      0.03352183	      0.02580484	      0.03359393	      0.03075343	      0.06146271	      0.06046314	      0.05711370	      0.05085955	      0.04595022	      0.04090668	      0.01525851	      0.01651186	      0.06550154	      0.04489616	      0.08115744	      0.02977553	      0.08035405	      0.02896257	      0.02391769	      0.01119913	     -0.02748780	     -0.09142389	     -0.18410220	     -0.21848360	      0.00000079	     -0.32847694	      0.00000060	     -0.00000086	    218.02489354	    101.05851873	     25.70401738	    -12.90295028	      5.36994257	     89.13493526	   -218.02489354	   -101.05851873	    -25.70401738	      3.42565276	     -7.20509546	     -1.53210725	    119.71704801	      5.15789800	    -14.80897711	      6.13823757	     -2.47123368	     48.65362143	   -119.71704801	     -5.15789800	     14.80897711	     -0.31991806	      2.14236200	     -1.73236925	   -106.65235949	    -46.18813566	     11.13212321	     -0.75456139	      1.55732519	     -0.75193761	    106.65235949	     46.18813566	    -11.13212321	      5.36734335	     -1.89867199	     43.52885437	    -16.78466244	    -12.00848029	     -5.24753577	      0.45819640	     -0.62732324	     -0.03006566	     16.78466244	     12.00848029	      5.24753577	     -2.44173025	      0.40932900	      6.87341601	    241.67824669	    120.73972544	     21.29472056	    116.75612972
